<mxfile host="app.diagrams.net" modified="2020-12-02T13:23:32.114Z" agent="5.0 (Windows NT 10.0; Win64; x64) AppleWebKit/537.36 (KHTML, like Gecko) Chrome/84.0.4147.135 Safari/537.36" etag="p6hNnm2rQKZ5tUUSjeHM" version="13.10.5" type="github">
  <diagram id="C5RBs43oDa-KdzZeNtuy" name="Page-1">
    <mxGraphModel dx="981" dy="624" grid="1" gridSize="10" guides="1" tooltips="1" connect="1" arrows="1" fold="1" page="1" pageScale="1" pageWidth="827" pageHeight="1169" math="0" shadow="0">
      <root>
        <mxCell id="WIyWlLk6GJQsqaUBKTNV-0" />
        <mxCell id="WIyWlLk6GJQsqaUBKTNV-1" parent="WIyWlLk6GJQsqaUBKTNV-0" />
        <mxCell id="zSzN4f7Cu-A0-guQOmf2-0" value="Workflow" style="rounded=0;whiteSpace=wrap;html=1;" vertex="1" parent="WIyWlLk6GJQsqaUBKTNV-1">
          <mxGeometry width="827" height="20" as="geometry" />
        </mxCell>
        <mxCell id="zSzN4f7Cu-A0-guQOmf2-437" style="edgeStyle=orthogonalEdgeStyle;rounded=0;orthogonalLoop=1;jettySize=auto;html=1;exitX=1;exitY=0.5;exitDx=0;exitDy=0;entryX=0;entryY=0.5;entryDx=0;entryDy=0;" edge="1" parent="WIyWlLk6GJQsqaUBKTNV-1" source="zSzN4f7Cu-A0-guQOmf2-422" target="zSzN4f7Cu-A0-guQOmf2-426">
          <mxGeometry relative="1" as="geometry" />
        </mxCell>
        <mxCell id="zSzN4f7Cu-A0-guQOmf2-422" value="Queue" style="rounded=0;whiteSpace=wrap;html=1;" vertex="1" parent="WIyWlLk6GJQsqaUBKTNV-1">
          <mxGeometry x="320" y="70" width="120" height="60" as="geometry" />
        </mxCell>
        <mxCell id="zSzN4f7Cu-A0-guQOmf2-446" style="edgeStyle=orthogonalEdgeStyle;rounded=0;orthogonalLoop=1;jettySize=auto;html=1;entryX=0;entryY=0.5;entryDx=0;entryDy=0;" edge="1" parent="WIyWlLk6GJQsqaUBKTNV-1" source="zSzN4f7Cu-A0-guQOmf2-423" target="zSzN4f7Cu-A0-guQOmf2-433">
          <mxGeometry relative="1" as="geometry" />
        </mxCell>
        <mxCell id="zSzN4f7Cu-A0-guQOmf2-423" value="Game start in 15 secs" style="rounded=0;whiteSpace=wrap;html=1;" vertex="1" parent="WIyWlLk6GJQsqaUBKTNV-1">
          <mxGeometry y="500" width="120" height="60" as="geometry" />
        </mxCell>
        <mxCell id="zSzN4f7Cu-A0-guQOmf2-424" value="Multiplayer" style="rounded=0;whiteSpace=wrap;html=1;" vertex="1" parent="WIyWlLk6GJQsqaUBKTNV-1">
          <mxGeometry y="70" width="120" height="60" as="geometry" />
        </mxCell>
        <mxCell id="zSzN4f7Cu-A0-guQOmf2-425" value="Join game&lt;br&gt;&amp;amp;&lt;br&gt;players assigning to teams" style="rounded=0;whiteSpace=wrap;html=1;" vertex="1" parent="WIyWlLk6GJQsqaUBKTNV-1">
          <mxGeometry x="160" y="70" width="120" height="60" as="geometry" />
        </mxCell>
        <mxCell id="zSzN4f7Cu-A0-guQOmf2-438" style="edgeStyle=orthogonalEdgeStyle;rounded=0;orthogonalLoop=1;jettySize=auto;html=1;exitX=1;exitY=0.5;exitDx=0;exitDy=0;" edge="1" parent="WIyWlLk6GJQsqaUBKTNV-1" source="zSzN4f7Cu-A0-guQOmf2-426" target="zSzN4f7Cu-A0-guQOmf2-427">
          <mxGeometry relative="1" as="geometry" />
        </mxCell>
        <mxCell id="zSzN4f7Cu-A0-guQOmf2-426" value="Creating copy of map" style="rounded=0;whiteSpace=wrap;html=1;" vertex="1" parent="WIyWlLk6GJQsqaUBKTNV-1">
          <mxGeometry x="480" y="70" width="120" height="60" as="geometry" />
        </mxCell>
        <mxCell id="zSzN4f7Cu-A0-guQOmf2-440" style="edgeStyle=orthogonalEdgeStyle;rounded=0;orthogonalLoop=1;jettySize=auto;html=1;entryX=0.5;entryY=0;entryDx=0;entryDy=0;" edge="1" parent="WIyWlLk6GJQsqaUBKTNV-1" source="zSzN4f7Cu-A0-guQOmf2-427" target="zSzN4f7Cu-A0-guQOmf2-428">
          <mxGeometry relative="1" as="geometry">
            <mxPoint x="700" y="270" as="targetPoint" />
            <Array as="points">
              <mxPoint x="700" y="280" />
              <mxPoint x="60" y="280" />
            </Array>
          </mxGeometry>
        </mxCell>
        <mxCell id="zSzN4f7Cu-A0-guQOmf2-427" value="Sending players to pre game lobby" style="rounded=0;whiteSpace=wrap;html=1;" vertex="1" parent="WIyWlLk6GJQsqaUBKTNV-1">
          <mxGeometry x="640" y="70" width="120" height="60" as="geometry" />
        </mxCell>
        <mxCell id="zSzN4f7Cu-A0-guQOmf2-441" style="edgeStyle=orthogonalEdgeStyle;rounded=0;orthogonalLoop=1;jettySize=auto;html=1;entryX=0;entryY=0.5;entryDx=0;entryDy=0;" edge="1" parent="WIyWlLk6GJQsqaUBKTNV-1" source="zSzN4f7Cu-A0-guQOmf2-428" target="zSzN4f7Cu-A0-guQOmf2-429">
          <mxGeometry relative="1" as="geometry" />
        </mxCell>
        <mxCell id="zSzN4f7Cu-A0-guQOmf2-428" value="1 minute last call for players to join" style="rounded=0;whiteSpace=wrap;html=1;" vertex="1" parent="WIyWlLk6GJQsqaUBKTNV-1">
          <mxGeometry y="300" width="120" height="60" as="geometry" />
        </mxCell>
        <mxCell id="zSzN4f7Cu-A0-guQOmf2-442" style="edgeStyle=orthogonalEdgeStyle;rounded=0;orthogonalLoop=1;jettySize=auto;html=1;entryX=0;entryY=0.5;entryDx=0;entryDy=0;" edge="1" parent="WIyWlLk6GJQsqaUBKTNV-1" source="zSzN4f7Cu-A0-guQOmf2-429" target="zSzN4f7Cu-A0-guQOmf2-430">
          <mxGeometry relative="1" as="geometry" />
        </mxCell>
        <mxCell id="zSzN4f7Cu-A0-guQOmf2-429" value="players sent to each team" style="rounded=0;whiteSpace=wrap;html=1;" vertex="1" parent="WIyWlLk6GJQsqaUBKTNV-1">
          <mxGeometry x="160" y="300" width="120" height="60" as="geometry" />
        </mxCell>
        <mxCell id="zSzN4f7Cu-A0-guQOmf2-443" style="edgeStyle=orthogonalEdgeStyle;rounded=0;orthogonalLoop=1;jettySize=auto;html=1;entryX=0;entryY=0.5;entryDx=0;entryDy=0;" edge="1" parent="WIyWlLk6GJQsqaUBKTNV-1" source="zSzN4f7Cu-A0-guQOmf2-430" target="zSzN4f7Cu-A0-guQOmf2-431">
          <mxGeometry relative="1" as="geometry" />
        </mxCell>
        <mxCell id="zSzN4f7Cu-A0-guQOmf2-445" style="edgeStyle=orthogonalEdgeStyle;rounded=0;orthogonalLoop=1;jettySize=auto;html=1;entryX=0.463;entryY=0.014;entryDx=0;entryDy=0;entryPerimeter=0;" edge="1" parent="WIyWlLk6GJQsqaUBKTNV-1" source="zSzN4f7Cu-A0-guQOmf2-430" target="zSzN4f7Cu-A0-guQOmf2-423">
          <mxGeometry relative="1" as="geometry">
            <mxPoint x="380" y="480" as="targetPoint" />
            <Array as="points">
              <mxPoint x="380" y="470" />
              <mxPoint x="56" y="470" />
              <mxPoint x="56" y="480" />
            </Array>
          </mxGeometry>
        </mxCell>
        <mxCell id="zSzN4f7Cu-A0-guQOmf2-430" value="giving kits to all players" style="rounded=0;whiteSpace=wrap;html=1;" vertex="1" parent="WIyWlLk6GJQsqaUBKTNV-1">
          <mxGeometry x="320" y="300" width="120" height="60" as="geometry" />
        </mxCell>
        <mxCell id="zSzN4f7Cu-A0-guQOmf2-444" style="edgeStyle=orthogonalEdgeStyle;rounded=0;orthogonalLoop=1;jettySize=auto;html=1;entryX=0;entryY=0.5;entryDx=0;entryDy=0;" edge="1" parent="WIyWlLk6GJQsqaUBKTNV-1" source="zSzN4f7Cu-A0-guQOmf2-431" target="zSzN4f7Cu-A0-guQOmf2-432">
          <mxGeometry relative="1" as="geometry" />
        </mxCell>
        <mxCell id="zSzN4f7Cu-A0-guQOmf2-431" value="Check for afk players&lt;br&gt;(later on function)" style="rounded=0;whiteSpace=wrap;html=1;" vertex="1" parent="WIyWlLk6GJQsqaUBKTNV-1">
          <mxGeometry x="480" y="300" width="120" height="60" as="geometry" />
        </mxCell>
        <mxCell id="zSzN4f7Cu-A0-guQOmf2-432" value="Assign team leader&lt;br&gt;(later function)" style="rounded=0;whiteSpace=wrap;html=1;" vertex="1" parent="WIyWlLk6GJQsqaUBKTNV-1">
          <mxGeometry x="640" y="300" width="120" height="60" as="geometry" />
        </mxCell>
        <mxCell id="zSzN4f7Cu-A0-guQOmf2-447" style="edgeStyle=orthogonalEdgeStyle;rounded=0;orthogonalLoop=1;jettySize=auto;html=1;entryX=0;entryY=0.5;entryDx=0;entryDy=0;" edge="1" parent="WIyWlLk6GJQsqaUBKTNV-1" source="zSzN4f7Cu-A0-guQOmf2-433" target="zSzN4f7Cu-A0-guQOmf2-434">
          <mxGeometry relative="1" as="geometry" />
        </mxCell>
        <mxCell id="zSzN4f7Cu-A0-guQOmf2-433" value="Mobs start spawning right after players released from landing crafts" style="rounded=0;whiteSpace=wrap;html=1;" vertex="1" parent="WIyWlLk6GJQsqaUBKTNV-1">
          <mxGeometry x="160" y="500" width="120" height="60" as="geometry" />
        </mxCell>
        <mxCell id="zSzN4f7Cu-A0-guQOmf2-434" value="written after task 5 is done" style="rounded=0;whiteSpace=wrap;html=1;" vertex="1" parent="WIyWlLk6GJQsqaUBKTNV-1">
          <mxGeometry x="320" y="500" width="120" height="60" as="geometry" />
        </mxCell>
        <mxCell id="zSzN4f7Cu-A0-guQOmf2-435" value="" style="endArrow=classic;html=1;exitX=1;exitY=0.5;exitDx=0;exitDy=0;" edge="1" parent="WIyWlLk6GJQsqaUBKTNV-1" source="zSzN4f7Cu-A0-guQOmf2-424" target="zSzN4f7Cu-A0-guQOmf2-425">
          <mxGeometry width="50" height="50" relative="1" as="geometry">
            <mxPoint x="120" y="130" as="sourcePoint" />
            <mxPoint x="170" y="80" as="targetPoint" />
          </mxGeometry>
        </mxCell>
        <mxCell id="zSzN4f7Cu-A0-guQOmf2-436" value="" style="endArrow=classic;html=1;exitX=1;exitY=0.5;exitDx=0;exitDy=0;" edge="1" parent="WIyWlLk6GJQsqaUBKTNV-1">
          <mxGeometry width="50" height="50" relative="1" as="geometry">
            <mxPoint x="280" y="99.66" as="sourcePoint" />
            <mxPoint x="320" y="99.66" as="targetPoint" />
          </mxGeometry>
        </mxCell>
      </root>
    </mxGraphModel>
  </diagram>
</mxfile>
